<?xml version="1.0" encoding="UTF-8"?><svg id="Capa_2" xmlns="http://www.w3.org/2000/svg" viewBox="0 0 199.32 43.32"><defs><style>.cls-1{fill:#002a3a;stroke-width:0px;}</style></defs><g id="Dño"><path class="cls-1" d="m31.1,5.7c-2.92-1.82-6.24-2.9-9.58-3.1C19.82,1.08,17.63.15,15.34,0h-.12s-.21,3.29-.21,3.29c-4.87,1.34-9.04,4.35-11.76,8.49C.31,16.26-.68,21.68.46,27.05l.27,1.26,1.28.13c.12.01.25.02.37.03,4.39.34,7.7-1.38,10.98-3.33l1.59-.95-3.25-4.93c1.99-1.33,4.45-1.94,6.73-1.66,1.62.2,3.88.93,5.46,3.29.87,1.3,1.83,2.41,2.87,3.32.79.74,1.74,1.37,2.81,1.89l.12.04h0c3.06,1.42,6.51,1.31,9.98-.32l.94-.44.07-1.04c.14-1.99-.02-3.99-.47-5.95-1.21-5.27-4.44-9.78-9.12-12.7Zm.39,17.38c-.92-.38-1.81-.98-2.66-1.77-1.25-1.31-2.67-3.68-2.37-7.48v-.13s-.12,0-.12,0c-1.47-.06-2.51.53-3.18,1.8-1.3-.74-2.75-1.21-4.3-1.4-3.81-.46-7.82.84-10.72,3.48l-1.12,1.02,2.92,4.43c-1.82,1-3.83,1.9-6.26,1.95-.53-3.98.36-7.97,2.52-11.25,2.38-3.62,6.07-6.17,10.41-7.19,1.63-.38,3.3-.51,4.97-.38,2.66.21,5.3,1.09,7.64,2.55,3.87,2.41,6.54,6.13,7.54,10.48.29,1.27.43,2.56.43,3.85-2.05.75-3.96.76-5.7.04Z"/><path class="cls-1" d="m30.99,31.85c-3.4,0-5.94-1.03-8.4-2.02-2.19-.88-4.25-1.71-6.69-1.71-1.72,0-3.48.42-5.38,1.27-2.15.97-4.49,2.5-7.13,4.68h-.01s0,.03,0,.03c3.78,5.77,10.15,9.22,17.04,9.22,4.25,0,8.31-1.29,11.76-3.74,3.37-2.39,5.91-5.7,7.34-9.57l.02-.04-.04.02c-3.11,1.26-5.9,1.87-8.51,1.87Zm-10.57,7.93c-2.28,0-4.49-.45-6.58-1.34-2.06-.87-3.9-2.13-5.47-3.74,3.93-2.74,6.17-3.05,7.52-3.05,1.76,0,3.35.64,5.37,1.46,2.64,1.07,5.64,2.28,9.72,2.28.26,0,.52,0,.78-.01-3.12,2.85-7.15,4.41-11.34,4.41Z"/><path class="cls-1" d="m195.53,11.16v17.36l-13.37-17.84h0s-3.78,0-3.78,0v24.57h3.3c.27,0,.48-.22.48-.48v-17.35l13.36,17.84h0s0,0,0,0h3.78V10.67h-3.3c-.27,0-.48.22-.48.48Z"/><path class="cls-1" d="m158.66,10.67l-8.17,21.41c-.92.36-1.97.58-3.22.58-3.75,0-5.24-1.87-7.13-4.23-.76-.95-1.58-1.98-2.62-2.92,1.04-.15,1.98-.4,2.8-.78,1.35-.61,2.37-1.49,3.07-2.64.7-1.15,1.04-2.52,1.04-4.14s-.31-2.87-.92-3.95c-.61-1.08-1.58-1.9-2.89-2.48-1.31-.57-2.99-.86-5.03-.86h-9.99v24.56h4.01v-9.34c4.23.17,5.91,2.26,7.84,4.68,2.07,2.59,4.41,5.52,9.81,5.52,5.1,0,7.83-2.64,10.23-4.97,2.55-2.47,4.43-4.27,8.81-3.3l.11.28,2.6,6.82c.07.19.25.31.45.31h4.01l-9.41-24.56h-5.4Zm-23.47,11.5h-5.08c-.27,0-.48-.22-.48-.48v-7.1c0-.27.22-.48.48-.48h5.21c1.28,0,2.31.14,3.07.43.76.29,1.3.72,1.62,1.29.31.57.47,1.31.47,2.21,0,1.42-.44,2.46-1.33,3.13-.89.67-2.2,1-3.95,1Zm21.13,5.33l.36-.95,4.06-10.92c.16-.42.75-.42.91,0l3.25,8.51c-4-.28-6.49,1.45-8.58,3.36Z"/><path class="cls-1" d="m115.02,12.08c-1.83-.94-4.15-1.41-6.96-1.41h-8.95v24.56h9.03c2.57,0,4.76-.5,6.59-1.52,1.83-1.01,3.23-2.44,4.22-4.3.98-1.86,1.47-4.07,1.47-6.63s-.44-4.79-1.33-6.59c-.89-1.8-2.24-3.17-4.07-4.11Zm.51,15.6c-.59,1.35-1.5,2.39-2.74,3.11-1.24.72-2.9,1.08-4.97,1.08h-4.2c-.27,0-.48-.22-.48-.48V14.51c0-.27.22-.48.48-.48h3.96c2.07,0,3.77.31,5.08.94,1.31.63,2.27,1.58,2.87,2.84.6,1.27.9,2.93.9,4.97,0,1.91-.29,3.54-.88,4.89Z"/><path class="cls-1" d="m67.4,10.92l-6.72,11.98c-.19.33-.66.33-.84,0l-6.72-11.98c-.09-.15-.25-.25-.42-.25h-3.83l9.37,16.58v7.98h4.04v-7.98h0l9.37-16.58h-3.83c-.18,0-.34.09-.42.25Z"/><path class="cls-1" d="m80.02,10.67l-6.47,16.96-1.26,3.31-1.64,4.29h3.84c.2,0,.38-.13.45-.32l.13-.34c2.52-6.29,9.81-7.32,11.68-6.84.4.1.74.23,1.04.38l2.6,6.82c.07.19.25.31.45.31h4.01l-9.41-24.56h-5.4Zm-1.25,15.47c-.24.16-.49.29-.73.43l4.06-10.92c.16-.42.75-.42.91,0l3.23,8.45c-1.94-.19-4.5.16-7.47,2.04Z"/></g></svg>