<svg id="Capa_1" data-name="Capa 1" xmlns="http://www.w3.org/2000/svg" viewBox="0 0 899.57 180.16"><defs><style>.cls-1{fill:#fff;}</style></defs><path class="cls-1" d="M439.6,164.69,475.14,15.46h35.12l-45.34,149H414.27l-45.34-149h35.12Z"/><path class="cls-1" d="M305,15.08,288.23,27.9H236.9V77.36h51.19V90.19H236.9v61.3h75.22v13.59h-112v-150Z"/><path class="cls-1" d="M679.33,15.08,662.58,27.9H611.25V77.36h51.2V90.19h-51.2v61.3h75.22v13.59H574.42v-150Z"/><path class="cls-1" d="M80.73,92.33a65.82,65.82,0,0,0,14.83-5.57,45.09,45.09,0,0,0,11.52-8.42,36.37,36.37,0,0,0,7.42-11,32.29,32.29,0,0,0,2.64-13,35.5,35.5,0,0,0-3.43-15.56,34,34,0,0,0-10.17-12.31,49.73,49.73,0,0,0-16.85-8A86.49,86.49,0,0,0,63.2,15.58H11.52v149h.69l24.36-18.88V94.57H54.1l51.8,70H135ZM66.63,84.8a51.51,51.51,0,0,1-15.56,2.25H36.57V24.91h22a34.59,34.59,0,0,1,12.64,2.25,30.43,30.43,0,0,1,10,6.23A27.19,27.19,0,0,1,87.75,43a32.23,32.23,0,0,1,2.31,12.36A28.37,28.37,0,0,1,79,78.45,38.41,38.41,0,0,1,66.63,84.8Z"/><path class="cls-1" d="M137.69,165.92H105.23l-51.8-70H37.91v50.43L12.67,165.92H10.18V14.24h53a88,88,0,0,1,23.85,2.92,51.32,51.32,0,0,1,17.31,8.26,35.44,35.44,0,0,1,10.56,12.79,37,37,0,0,1,3.56,16.14,33.93,33.93,0,0,1-2.75,13.57A38,38,0,0,1,108,79.27,47,47,0,0,1,96.19,88,67.16,67.16,0,0,1,83,93.11Zm-31.11-2.68h25.74L78.45,91.52l2-.49a65.26,65.26,0,0,0,14.53-5.45,44.29,44.29,0,0,0,11.18-8.18,35.23,35.23,0,0,0,7.15-10.55,31.14,31.14,0,0,0,2.53-12.5,34.24,34.24,0,0,0-3.3-15,32.7,32.7,0,0,0-9.77-11.82,48.44,48.44,0,0,0-16.41-7.81A85.46,85.46,0,0,0,63.2,16.92H12.86V162.38L35.23,145V93.23H54.78ZM51.07,88.39H35.23V23.57H58.6a36.12,36.12,0,0,1,13.12,2.34,31.92,31.92,0,0,1,10.44,6.51A28.86,28.86,0,0,1,89,42.49,33.74,33.74,0,0,1,91.4,55.36,29.68,29.68,0,0,1,79.82,79.5,40,40,0,0,1,67,86.08h0A53.16,53.16,0,0,1,51.07,88.39ZM37.91,85.71H51.07a50.44,50.44,0,0,0,15.16-2.19h0a37.06,37.06,0,0,0,11.93-6.13,27,27,0,0,0,10.56-22,31,31,0,0,0-2.21-11.85,26.05,26.05,0,0,0-6.19-9.14,29.13,29.13,0,0,0-9.57-6A33.43,33.43,0,0,0,58.6,26.25H37.91Z"/><path class="cls-1" d="M832.44,92.33a66,66,0,0,0,14.83-5.57,45.09,45.09,0,0,0,11.52-8.42,36.56,36.56,0,0,0,7.42-11,32.46,32.46,0,0,0,2.64-13,35.5,35.5,0,0,0-3.43-15.56,34,34,0,0,0-10.17-12.31,49.73,49.73,0,0,0-16.85-8,86.55,86.55,0,0,0-23.49-2.87H763.23v149h.69l24.36-18.88V94.57h17.53l51.8,70h29.1Zm-14.1-7.53a51.51,51.51,0,0,1-15.56,2.25h-14.5V24.91h22A34.63,34.63,0,0,1,823,27.16a30.43,30.43,0,0,1,10,6.23A27.19,27.19,0,0,1,839.46,43a32.23,32.23,0,0,1,2.31,12.36A28.37,28.37,0,0,1,830.7,78.45,38.41,38.41,0,0,1,818.34,84.8Z"/><path class="cls-1" d="M889.39,165.92H856.93l-51.79-70H789.62v50.43l-25.24,19.58h-2.49V14.24h53a88,88,0,0,1,23.85,2.92,51.42,51.42,0,0,1,17.31,8.26,35.44,35.44,0,0,1,10.56,12.79,37,37,0,0,1,3.56,16.14,33.77,33.77,0,0,1-2.76,13.57,37.77,37.77,0,0,1-7.68,11.35A47,47,0,0,1,847.9,88a67.16,67.16,0,0,1-13.19,5.16Zm-31.1-2.68H884L830.16,91.52l2-.49a65.26,65.26,0,0,0,14.53-5.45,44.29,44.29,0,0,0,11.18-8.18A35.23,35.23,0,0,0,865,66.85a31.14,31.14,0,0,0,2.53-12.5,34.24,34.24,0,0,0-3.3-15,32.7,32.7,0,0,0-9.77-11.82A48.44,48.44,0,0,0,838,19.74a85.46,85.46,0,0,0-23.12-2.82H764.57V162.38L786.94,145V93.23h19.55ZM802.78,88.39H786.94V23.57h23.37a36.12,36.12,0,0,1,13.12,2.34,31.92,31.92,0,0,1,10.44,6.51,28.86,28.86,0,0,1,6.83,10.07,33.74,33.74,0,0,1,2.41,12.87A29.76,29.76,0,0,1,831.53,79.5a40.08,40.08,0,0,1-12.79,6.58h0A53.16,53.16,0,0,1,802.78,88.39Zm-13.16-2.68h13.16a50.44,50.44,0,0,0,15.16-2.19h0a37.06,37.06,0,0,0,11.93-6.13,27,27,0,0,0,10.56-22,31,31,0,0,0-2.21-11.85A26.05,26.05,0,0,0,832,34.37a29.13,29.13,0,0,0-9.57-6,33.43,33.43,0,0,0-12.15-2.16H789.62Z"/></svg>